# xmcd
#
# Track frame offsets:
#	150
#	12552
#	25480
#	36777
#	49012
#	63180
#	77202
#	88600
#	103540
#	119350
#	128985
#	146565
#	160102
#	172790
#	185410
#	196485
#	209705
#
# Disc length: 2994 seconds
#
# Revision: 1
# Processed by: cddbd v1.5.2PL0 Copyright (c) Steve Scherf et al.
# Submitted via: audiograbber 1.83.01
#
DISCID=eb0bb011
DTITLE=Fidele Dorfmusikanten - Frühling auf Burg Lichtenberg
DYEAR=1994
DGENRE=
TTITLE0=Fidele Dorfmusikanten
TTITLE1=Der Schornsteinfeger aus Eger
TTITLE2=Dei Tanze
TTITLE3=rosen so rot
TTITLE4=Dorfschmied
TTITLE5=Hanna-Polka
TTITLE6=Feinschmecker-Polka
TTITLE7=Der schönste Stern
TTITLE8=Frühling auf Burg Lichtenberg
TTITLE9=Kuseler Geschichten
TTITLE10=Im kleinen Dörfchen
TTITLE11=Junge Musik
TTITLE12=Mama
TTITLE13=Egerland, ich grüße diech
TTITLE14=Feierabend-Polka
TTITLE15=Deine Augen, sie sagen ja
TTITLE16=Wir seh'n uns wieder
EXTD=
EXTT0=
EXTT1=
EXTT2=
EXTT3=
EXTT4=
EXTT5=
EXTT6=
EXTT7=
EXTT8=
EXTT9=
EXTT10=
EXTT11=
EXTT12=
EXTT13=
EXTT14=
EXTT15=
EXTT16=
PLAYORDER=
